Coordinates
version=1
nRows=14
nColumns=36
inDegrees=yes

Units are S.I. units (second, meters, Newtons, ...)
If the header above contains a line with 'inDegrees', this indicates whether rotational values are in degrees (yes) or radians (no).

endheader
time	pelvis_tilt	pelvis_list	pelvis_rotation	pelvis_tx	pelvis_ty	pelvis_tz	hip_flexion_r	hip_adduction_r	hip_rotation_r	knee_angle_r	knee_angle_r_beta	ankle_angle_r	subtalar_angle_r	mtp_angle_r	hip_flexion_l	hip_adduction_l	hip_rotation_l	knee_angle_l	knee_angle_l_beta	ankle_angle_l	subtalar_angle_l	mtp_angle_l	lumbar_extension	lumbar_bending	lumbar_rotation	arm_flex_r	arm_add_r	arm_rot_r	elbow_flex_r	pro_sup_r	arm_flex_l	arm_add_l	arm_rot_l	elbow_flex_l	pro_sup_l
      3.37000000	     -5.97049371	      0.81810527	      4.64195593	     -0.20914121	      0.98953643	     -0.52698370	     24.91880452	     -2.64255493	    -14.38831424	     39.20159090	      0.68419683	     19.57695481	     -8.70906089	     -7.49999987	     27.96804086	    -10.91677657	      0.04140353	     39.25673253	      0.68515924	      7.57199685	     -8.47023203	     -7.49999987	    -17.48065467	      2.06433926	     -3.35769422	      7.78114393	     -9.23527555	    -14.14941082	     49.41828167	    108.65512423	      5.39345046	     -9.04625313	    -21.95269107	     55.53942161	    102.57384416
      3.38000000	     -5.99106077	      0.95092383	      4.67457218	     -0.21213279	      0.98485614	     -0.52510822	     25.98167795	     -2.81919496	    -14.16393416	     40.93370613	      0.71442795	     20.34069954	     -9.19005828	     -7.49999987	     29.12169586	    -10.91225698	      0.38170386	     41.00314122	      0.71563982	      7.88118893	     -8.67401546	     -7.49999987	    -18.11418716	      1.99174767	     -3.32069013	      8.73126403	     -9.63805170	    -14.04302643	     49.87569274	    108.64654200	      6.18709322	     -9.42289906	    -21.85055444	     56.42776088	    102.64574050
      3.39000000	     -6.08373054	      1.05129960	      4.73849200	     -0.21515519	      0.97982772	     -0.52331997	     27.16198419	     -3.00276597	    -14.00646700	     42.74053703	      0.74596310	     21.04272935	     -9.46806048	     -7.49999987	     30.39436708	    -10.91631733	      0.71762428	     42.80028701	      0.74700593	      8.15113855	     -8.77875930	     -7.49999987	    -18.66075095	      1.96853218	     -3.39095520	      9.70972537	    -10.03873279	    -13.85613124	     50.38771708	    108.62661973	      6.91393178	     -9.85570049	    -21.67921609	     57.34226738	    102.66677883
      3.40000000	     -6.15436024	      1.18405988	      4.77992647	     -0.21819506	      0.97462039	     -0.52167739	     28.33929928	     -3.19645858	    -13.78313261	     44.56350017	      0.77777980	     21.79597553	     -9.90873283	     -7.49999987	     31.62176297	    -10.87794246	      1.01274639	     44.58545128	      0.77816292	      8.51749215	     -9.01383797	     -7.49999987	    -19.23290460	      1.92251899	     -3.44094268	     10.73020598	    -10.46278613	    -13.72631974	     50.83930030	    108.60972749	      7.68794742	    -10.30580582	    -21.51514391	     58.23173632	    102.63851855
      3.41000000	     -6.26184713	      1.32919088	      4.84233657	     -0.22126108	      0.96914185	     -0.52035706	     29.56757566	     -3.45372909	    -13.60803975	     46.41990378	      0.81018016	     22.53422906	    -10.28908813	     -7.49999987	     32.90139074	    -10.78087648	      1.33263248	     46.38628478	      0.80959340	      8.93429767	     -9.25217198	     -7.49999987	    -19.75965844	      1.89039316	     -3.51613817	     11.76439812	    -10.92234747	    -13.60478332	     51.31118194	    108.58858284	      8.47825457	    -10.73060301	    -21.43410084	     59.12088485	    102.58329571
      3.42000000	     -6.14556523	      1.44172962	      4.90869168	     -0.22419290	      0.96381577	     -0.51904979	     30.49506397	     -3.69578865	    -13.59694263	     48.18297306	      0.84095152	     23.10705111	    -10.64413690	     -7.49999987	     33.94532507	    -10.78250322	      1.54946651	     48.16339955	      0.84060990	      9.18827241	     -9.45010292	     -7.49999987	    -20.50082805	      1.91117043	     -3.56280561	     12.87676622	    -11.37705745	    -13.54022946	     51.70586508	    108.57194399	      9.39942086	    -11.14789394	    -21.38383811	     59.82243087	    102.56562393
      3.43000000	     -6.45306330	      1.53115510	      4.97009529	     -0.22736997	      0.95760583	     -0.51766503	     31.95202907	     -3.84396711	    -13.29105081	     50.02453009	      0.87309276	     24.02756050	    -10.87345868	     -7.49999987	     35.47697415	    -10.69365246	      1.99100947	     49.98025411	      0.87232000	      9.61070958	     -9.56506839	     -7.49999987	    -20.82332696	      1.89254517	     -3.72657280	     13.93791254	    -11.80823426	    -13.34462252	     52.21714798	    108.52206510	     10.03300589	    -11.66676518	    -21.27962624	     60.84084408	    102.51896420
      3.44000000	     -6.47010449	      1.57330611	      5.04601841	     -0.23032071	      0.95171526	     -0.51633101	     33.02569576	     -3.89761197	    -13.04151524	     51.73926328	      0.90302050	     24.80548196	    -11.22272303	     -7.49999987	     36.68544522	    -10.70311325	      2.32911934	     51.75249677	      0.90325146	      9.96615738	     -9.74208499	     -7.49999987	    -21.43043328	      1.96344303	     -3.87268352	     15.11142500	    -12.21467976	    -13.16347912	     52.57109699	    108.46314046	     10.80744066	    -12.16097976	    -21.19041216	     61.66361253	    102.45938519
      3.45000000	     -6.44820830	      1.54944664	      5.17906034	     -0.23317605	      0.94574778	     -0.51527534	     34.04014992	     -3.93718729	    -12.88262623	     53.45078958	      0.93289227	     25.64206347	    -11.31324916	     -7.49999987	     37.89800297	    -10.73075429	      2.75622913	     53.56342598	      0.93485814	     10.45697534	     -9.65593318	     -7.49999987	    -22.07328406	      2.14778202	     -4.28945799	     16.53409944	    -12.68744934	    -12.37526549	     52.68200362	    108.17451541	     11.38357412	    -12.64430851	    -21.44928021	     62.70381581	    101.95986788
      3.46000000	     -6.45260280	      1.48270225	      5.32339006	     -0.23599926	      0.93964715	     -0.51433084	     35.06572643	     -3.93056764	    -12.75384176	     55.10703178	      0.96179915	     26.28728173	    -11.82585727	     -7.49999987	     39.15837995	    -10.75458395	      3.25937785	     55.37055918	      0.96639857	     10.78017778	     -9.90008941	     -7.49999987	    -22.68181912	      2.38385383	     -4.35588934	     17.61512963	    -13.20837405	    -12.22044153	     53.17294275	    108.15437523	     12.29655865	    -13.06463921	    -21.33128368	     63.31556961	    101.93691599
      3.47000000	     -6.12088113	      1.48794143	      5.35108862	     -0.23852658	      0.93413843	     -0.51335127	     35.67188261	     -3.93293391	    -12.59050403	     56.65879419	      0.98888251	     26.59679229	    -12.15355328	     -7.49999987	     39.93705093	    -10.82705823	      3.57296729	     57.05527509	      0.99580241	     10.84566797	    -10.04590484	     -7.49999987	    -23.65136958	      2.55522528	     -4.35201415	     18.80338715	    -13.64195373	    -12.21369474	     53.49674061	    108.14770426	     13.31254188	    -13.45391619	    -21.29490518	     63.69389218	    101.94857452
      3.48000000	     -6.61470239	      1.35148906	      5.45295070	     -0.24139943	      0.92704233	     -0.51257557	     37.27537751	     -3.91057257	    -12.47323997	     58.37146182	      1.01877420	     27.57037894	    -12.47726349	     -7.49999987	     41.78490218	    -10.88987993	      4.00433483	     58.93127237	      1.02854474	     11.41509888	    -10.12762490	     -7.49999987	    -23.70901000	      2.80032877	     -4.39064826	     19.81175242	    -14.21901270	    -11.85758172	     54.02210791	    108.09449204	     13.98423849	    -13.86701118	    -21.13758698	     64.53896283	    101.95109067
      3.49000000	     -6.73095373	      1.27055359	      5.46319752	     -0.24407554	      0.92063627	     -0.51183427	     38.42631132	     -3.87091592	    -12.30451760	     59.98698044	      1.04697032	     28.19893443	    -12.65838063	     -7.49999987	     43.11384772	    -10.98168709	      4.32369935	     60.67352393	      1.05895276	     11.79594333	    -10.17584454	     -7.49999987	    -24.17113834	      3.00054192	     -4.39108165	     20.97954765	    -14.75884933	    -11.51213785	     54.33919831	    108.02061595	     14.82208665	    -14.21157599	    -21.13579729	     65.12406385	    101.90506276
      3.50000000	     -6.87683715	      1.17347379	      5.45410835	     -0.24677568	      0.91409921	     -0.51115049	     39.61885808	     -3.82613302	    -12.15178305	     61.59841713	      1.07509519	     28.83052031	    -12.62378699	     -7.49999987	     44.46912579	    -11.08203587	      4.66044852	     62.39966537	      1.08907961	     12.15251355	    -10.07082967	     -7.49999987	    -24.58815870	      3.21539279	     -4.51777170	     22.30390651	    -15.26004633	    -10.81143326	     54.49526150	    107.80160925	     15.52925830	    -14.59923117	    -21.30868072	     65.78175399	    101.69737937
